<?xml version="1.0" ?><!DOCTYPE svg  PUBLIC '-//W3C//DTD SVG 1.1//EN'  'http://www.w3.org/Graphics/SVG/1.1/DTD/svg11.dtd'><svg style="enable-background:new 0 0 500 500;" version="1.1" viewBox="0 0 500 500" xml:space="preserve" xmlns="http://www.w3.org/2000/svg" xmlns:xlink="http://www.w3.org/1999/xlink"><g id="browser-404-error-internet"><g><circle cx="250" cy="250" r="250" style="fill:#F4F1F0;"/><g id="_x32_0"><path d="M228.087,337.874l-16.151-4.291c-0.054-2.034-0.168-4.036-0.412-6.022l15.495-6.314     c1.763-0.727,2.718-2.594,2.181-4.156l-2.94-10.98c-0.314-1.66-2.094-2.778-3.96-2.518l-16.911,2.355     c-0.765-1.698-1.644-3.364-2.534-4.964l12.186-11.366c1.356-1.275,1.606-3.343,0.532-4.628l-6.673-9.213     c-0.862-1.438-2.886-1.85-4.552-0.971l-15.777,8.648c-1.128-1.01-2.284-1.986-3.489-2.897l7.466-15.446     c0.824-1.698,0.298-3.727-1.161-4.53l-9.549-6.195c-1.302-1.031-3.396-0.662-4.6,0.781l-7.15,8.507l-4.981,5.914     c-0.055,0.043-0.098,0.075-0.13,0.162c-0.347-0.119-0.667-0.249-1.041-0.336l0.374-18.794c0.049-1.877-1.286-3.516-2.935-3.602     l-6.266-0.917l-4.232-0.613l-0.776-0.12c-0.771-0.179-1.573,0.011-2.262,0.445c-0.744,0.472-1.351,1.237-1.601,2.197     l-3.017,10.889l-1.975,7.167c-1.118,0.043-2.257,0.07-3.364,0.157c-0.076-0.2-0.141-0.412-0.201-0.624l-3.532-8.046l-0.136-0.336     l-3.906-8.876c-0.31-0.716-0.83-1.237-1.416-1.628c-0.863-0.553-1.883-0.786-2.821-0.444l-0.51,0.151v39.893     c1.096-0.417,2.191-0.852,3.331-1.177c5.154-1.438,10.601-2.116,16.189-1.889l-3.016,20.692     c-4.699,0.12-9.158,1.367-13.173,3.396c-1.167,0.586-2.246,1.302-3.331,2.019v24.457c0.011,5.1,3.363,9.473,7.942,11.128     c-3.006-2.925-4.709-7.091-4.069-11.561c1.096-7.439,7.986-12.587,15.397-11.513c2.371,0.342,4.449,1.312,6.245,2.658     c1.839,1.399,3.282,3.255,4.232,5.366c0.993,2.24,1.427,4.768,1.047,7.384c-0.179,1.236-0.569,2.382-1.047,3.472     c-0.847,1.948-2.143,3.603-3.722,4.932h20.817c0.716-1.86,1.291-3.798,1.584-5.859c0.651-4.497,0.293-8.902-0.868-13.004     l19.287-7.704c2.436,7.367,3.26,15.451,2.034,23.676c-0.136,0.987-0.331,1.942-0.532,2.892h36.48l0.532-3.955     C231.098,340.099,229.904,338.368,228.087,337.874z M170.085,316.498l-1.769,0.711c-3.282-4.654-7.856-8.29-13.21-10.634     c-0.906-0.385-1.774-0.824-2.718-1.139l2.718-18.881l0.255-1.779c5.306,1.324,10.249,3.445,14.725,6.218     c7.411,4.584,13.519,10.959,17.784,18.43L170.085,316.498z" style="fill:#FF931E;"/><g><g><path d="M261.154,298.492h86.513c5.295,0,5.295-9.056,0-9.056h-86.513       C255.876,289.436,255.876,298.492,261.154,298.492z" style="fill:#817B75;"/><path d="M261.154,275.852h86.513c5.295,0,5.295-9.055,0-9.055h-86.513       C255.876,266.797,255.876,275.852,261.154,275.852z" style="fill:#817B75;"/><path d="M261.154,321.137h86.513c5.295,0,5.295-9.06,0-9.06h-86.513       C255.876,312.077,255.876,321.137,261.154,321.137z" style="fill:#817B75;"/></g><g><path d="M285.753,235.2h-4.568v7.856h-7.823V235.2h-16.167v-5.566l16.612-24.457h7.378v23.807h4.568       V235.2z M273.361,228.982v-6.424c0-1.069,0.044-2.626,0.131-4.666c0.086-2.034,0.157-3.223,0.206-3.548h-0.206       c-0.641,1.421-1.405,2.799-2.301,4.145l-6.944,10.493H273.361z" style="fill:#726A64;"/><path d="M317.627,224.11c0,6.619-1.08,11.517-3.25,14.691c-2.17,3.18-5.507,4.769-10.015,4.769       c-4.373,0-7.666-1.644-9.886-4.92c-2.219-3.288-3.331-8.128-3.331-14.54c0-6.684,1.085-11.61,3.239-14.779       c2.165-3.168,5.485-4.752,9.978-4.752c4.372,0,7.671,1.66,9.906,4.97C316.51,212.869,317.627,217.719,317.627,224.11z        M299.1,224.11c0,4.649,0.401,7.975,1.204,9.993c0.809,2.008,2.159,3.017,4.059,3.017c1.86,0,3.212-1.02,4.042-3.06       c0.83-2.035,1.242-5.35,1.242-9.95c0-4.645-0.424-7.981-1.259-10.01c-0.836-2.024-2.176-3.044-4.025-3.044       c-1.883,0-3.229,1.02-4.048,3.044C299.506,216.129,299.1,219.466,299.1,224.11z" style="fill:#726A64;"/><path d="M351.628,235.2h-4.558v7.856h-7.823V235.2h-16.168v-5.566l16.607-24.457h7.384v23.807h4.558       V235.2z M339.247,228.982v-6.424c0-1.069,0.043-2.626,0.13-4.666c0.087-2.034,0.152-3.223,0.206-3.548h-0.206       c-0.64,1.421-1.41,2.799-2.306,4.145l-6.95,10.493H339.247z" style="fill:#726A64;"/></g></g><path d="M362.776,140.077H137.229c-14.415,0.027-26.09,11.708-26.117,26.123v167.61     c0.027,14.404,11.702,26.085,26.117,26.112h225.548c14.41-0.027,26.097-11.708,26.112-26.112V166.2     C388.873,151.785,377.186,140.104,362.776,140.077z M360.004,156.815c3.283,0,5.941,2.658,5.941,5.935     c0,3.277-2.658,5.935-5.941,5.935c-3.276,0-5.93-2.658-5.93-5.935C354.074,159.473,356.727,156.815,360.004,156.815z      M313.362,157.172h29.184c3.092,0,5.588,2.496,5.588,5.577c0,3.082-2.496,5.582-5.588,5.582h-29.184     c-3.087,0-5.582-2.501-5.582-5.582C307.78,159.668,310.275,157.172,313.362,157.172z M374.652,333.811     c-0.011,6.483-5.392,11.86-11.876,11.865H137.229c-6.477-0.005-11.854-5.382-11.87-11.865V182.932h249.294V333.811z" style="fill:#675F58;"/></g></g></g><g id="Layer_1"/></svg>